<svg xmlns="http://www.w3.org/2000/svg" version="1.1" xmlns:xlink="http://www.w3.org/1999/xlink" xmlns:svgjs="http://svgjs.dev/svgjs" width="1000" height="1000"><g clip-path="url(#SvgjsClipPath1057)"><rect width="1000" height="1000" fill="#ffffff"></rect><g transform="matrix(1.7578125,0,0,1.7578125,50,50)"><svg xmlns="http://www.w3.org/2000/svg" version="1.1" xmlns:xlink="http://www.w3.org/1999/xlink" xmlns:svgjs="http://svgjs.dev/svgjs" width="512" height="512"><svg width="512" height="512" viewBox="0 0 512 512" fill="none" xmlns="http://www.w3.org/2000/svg">
<g clip-path="url(#clip0_11_558)">
<path d="M256 0C199.616 0 145.542 18.868 99.622 54.563C93.081 59.647 91.901 69.071 96.985 75.612C102.069 82.154 111.494 83.332 118.034 78.249C158.639 46.684 206.347 30 256 30C354.337 30 438.191 93.139 469.191 181H436.006C405.856 108.798 334.826 61 256 61C148.477 61 61 148.477 61 256C61 285.403 67.413 313.684 80.059 340.058C83.632 347.509 92.582 350.688 100.07 347.098C107.54 343.516 110.692 334.556 107.11 327.087C96.42 304.794 91 280.877 91 256C91 170.075 157.023 99.293 241 91.689V121.828C173.595 129.314 121 186.631 121 256C121 287.827 132.078 317.112 150.571 340.216L86.02 404.767C51.162 364.989 30 312.922 30 256C30 206.347 46.684 158.639 78.249 118.034C83.333 111.493 82.153 102.07 75.612 96.985C69.07 91.9 59.648 93.081 54.563 99.622C18.868 145.542 0 199.616 0 256C0 396.959 115.05 512 256 512C396.959 512 512 396.951 512 256C512 115.041 396.951 0 256 0ZM107.233 425.98L171.784 361.429C194.888 379.922 224.173 391 256 391C325.369 391 382.676 338.406 390.162 271H420.324C416.749 310.505 399.187 346.033 372.647 372.586C372.637 372.596 372.625 372.605 372.615 372.615C372.608 372.622 372.602 372.631 372.594 372.638C342.719 402.502 301.48 421 256 421C231.123 421 207.206 415.58 184.914 404.89C177.442 401.307 168.484 404.46 164.903 411.93C161.321 419.4 164.473 428.359 171.943 431.941C198.316 444.587 226.597 451 256 451C304.374 451 348.685 433.288 382.803 404.016L404.767 425.98C364.989 460.838 312.922 482 256 482C199.078 482 147.011 460.838 107.233 425.98ZM425.98 404.767L404.016 382.803C433.287 348.685 451 304.374 451 256C451 247.716 444.284 241 436 241H390.137C385.371 198.854 360.768 160.72 323.523 139.128C316.356 134.973 307.176 137.415 303.023 144.582C298.868 151.749 301.309 160.927 308.476 165.082C340.874 183.864 361 218.702 361 256C361 313.897 313.897 361 256 361C202.97 361 159.346 321.6 152.076 271H196C204.284 271 211 264.284 211 256C211 231.187 231.187 211 256 211C280.813 211 301 231.187 301 256C301 280.813 280.813 301 256 301C247.652 301 239.508 298.702 232.449 294.355C225.397 290.011 216.155 292.209 211.811 299.262C207.467 306.316 209.664 315.556 216.718 319.9C228.511 327.162 242.094 331 256 331C297.355 331 331 297.355 331 256C331 214.645 297.355 181 256 181C219.781 181 189.476 206.809 182.507 241H152.076C159.377 190.183 203.195 151 256 151C264.284 151 271 144.284 271 136V91.692C334.566 97.514 389.941 139.968 411.582 201.012C413.704 206.999 419.368 211 425.72 211H477.495C480.446 225.547 482.001 240.595 482.001 256C482 312.922 460.839 364.988 425.98 404.767Z" fill="#353535"></path>
</g>
<defs>
<clipPath id="clip0_11_558">
<rect width="512" height="512" fill="white"></rect>
</clipPath>
<clipPath id="SvgjsClipPath1057"><rect width="1000" height="1000" x="0" y="0" rx="350" ry="350"></rect></clipPath></defs>
</svg></svg></g></g></svg>